<svg width="240" height="326" viewBox="0 0 240 326" fill="none" xmlns="http://www.w3.org/2000/svg">
<g opacity="0.9" filter="url(#filter0_f_1920_8)">
<path fill-rule="evenodd" clip-rule="evenodd" d="M13 36.0778V221.161C13.0022 224.618 13.7829 228.031 15.2845 231.146C16.7862 234.262 18.9703 237.001 21.6757 239.162L109.155 309.203C112.233 311.661 116.058 313 120 313C123.942 313 127.767 311.661 130.845 309.203L218.324 239.162C221.03 237.001 223.214 234.262 224.715 231.146C226.217 228.031 226.998 224.618 227 221.161V36.0778C227 29.9572 224.563 24.0872 220.224 19.7593C215.885 15.4314 210.001 13 203.865 13H36.1351C29.9993 13 24.1148 15.4314 19.7761 19.7593C15.4374 24.0872 13 29.9572 13 36.0778V36.0778Z" stroke="#1A66FF" stroke-width="6"/>
</g>
<g filter="url(#filter1_b_1920_8)">
<path fill-rule="evenodd" clip-rule="evenodd" d="M13 36.0778V221.161C13.0022 224.618 13.7829 228.031 15.2845 231.146C16.7862 234.262 18.9703 237.001 21.6757 239.162L109.155 309.203C112.233 311.661 116.058 313 120 313C123.942 313 127.767 311.661 130.845 309.203L218.324 239.162C221.03 237.001 223.214 234.262 224.715 231.146C226.217 228.031 226.998 224.618 227 221.161V36.0778C227 29.9572 224.563 24.0872 220.224 19.7593C215.885 15.4314 210.001 13 203.865 13H36.1351C29.9993 13 24.1148 15.4314 19.7761 19.7593C15.4374 24.0872 13 29.9572 13 36.0778V36.0778Z" fill="url(#paint0_linear_1920_8)" fill-opacity="0.2"/>
</g>
<g filter="url(#filter2_b_1920_8)">
<path fill-rule="evenodd" clip-rule="evenodd" d="M23.8997 236.37L23.9031 236.373L111.379 306.411C113.824 308.363 116.864 309.429 120 309.429C123.136 309.429 126.176 308.363 128.621 306.411L216.1 236.37C218.388 234.543 220.234 232.227 221.503 229.594C222.772 226.962 223.431 224.079 223.433 221.159V36.0778C223.433 30.9088 221.375 25.9487 217.707 22.2895C214.038 18.6299 209.059 16.5714 203.865 16.5714H36.1351C30.9409 16.5714 25.9621 18.6299 22.2933 22.2895C18.625 25.9487 16.5667 30.9088 16.5667 36.0778V221.16C16.5686 224.08 17.228 226.962 18.4967 229.594C19.7655 232.227 21.6117 234.543 23.8997 236.37ZM13 221.161V36.0778C13 29.9572 15.4374 24.0872 19.7761 19.7593C24.1148 15.4314 29.9993 13 36.1351 13H203.865C210.001 13 215.885 15.4314 220.224 19.7593C224.563 24.0872 227 29.9572 227 36.0778V221.161C226.998 224.618 226.217 228.031 224.715 231.146C223.214 234.262 221.03 237.001 218.324 239.162L130.845 309.203C127.767 311.661 123.942 313 120 313C116.058 313 112.233 311.661 109.155 309.203L21.6757 239.162C18.9703 237.001 16.7862 234.262 15.2845 231.146C13.7829 228.031 13.0022 224.618 13 221.161Z" fill="url(#paint1_linear_1920_8)"/>
</g>
<g opacity="0.4" filter="url(#filter3_f_1920_8)">
<path d="M182.379 119.937V79.5979C182.379 74.2487 180.276 69.1185 176.531 65.336C172.786 61.5535 167.708 59.4285 162.412 59.4285H77.5507C72.255 59.4285 67.1762 61.5535 63.4316 65.336C59.687 69.1185 57.5833 74.2487 57.5833 79.5979V196.644C57.5852 199.665 58.259 202.648 59.555 205.371C60.8511 208.094 62.7362 210.488 65.0711 212.376L95.9705 237.437C96.3373 237.737 96.781 237.926 97.2501 237.982C97.7191 238.038 98.1943 237.959 98.6203 237.753C99.0464 237.547 99.4059 237.223 99.657 236.819C99.9081 236.415 100.04 235.947 100.039 235.47V152.712C100.039 152.044 100.302 151.402 100.77 150.93C101.238 150.457 101.873 150.191 102.535 150.191H124.998C128.97 150.191 132.779 151.785 135.587 154.622C138.396 157.459 139.974 161.306 139.974 165.318V235.47C139.974 235.945 140.107 236.41 140.357 236.812C140.608 237.214 140.966 237.536 141.389 237.741C141.813 237.947 142.286 238.027 142.753 237.973C143.22 237.919 143.662 237.733 144.029 237.437L174.929 212.376C177.264 210.488 179.149 208.094 180.445 205.371C181.741 202.648 182.415 199.665 182.417 196.644V160.276C182.417 154.927 180.313 149.796 176.568 146.014C172.824 142.231 167.745 140.106 162.449 140.106C167.738 140.096 172.808 137.967 176.544 134.185C180.281 130.404 182.379 125.28 182.379 119.937ZM124.973 130.022H102.51C101.848 130.022 101.213 129.756 100.745 129.283C100.277 128.81 100.014 128.169 100.014 127.5V82.1191C100.014 81.4505 100.277 80.8092 100.745 80.3364C101.213 79.8636 101.848 79.5979 102.51 79.5979H137.453C138.115 79.5979 138.75 79.8636 139.218 80.3364C139.686 80.8092 139.949 81.4505 139.949 82.1191V114.895C139.949 118.906 138.371 122.754 135.562 125.591C132.754 128.428 128.945 130.022 124.973 130.022Z" stroke="#1A66FF" stroke-width="9"/>
</g>
<path d="M182.379 119.937V79.5979C182.379 74.2487 180.276 69.1185 176.531 65.336C172.786 61.5535 167.708 59.4285 162.412 59.4285H77.5507C72.255 59.4285 67.1762 61.5535 63.4316 65.336C59.687 69.1185 57.5833 74.2487 57.5833 79.5979V196.644C57.5852 199.665 58.259 202.648 59.555 205.371C60.8511 208.094 62.7362 210.488 65.0711 212.376L95.9705 237.437C96.3373 237.737 96.781 237.926 97.2501 237.982C97.7191 238.038 98.1943 237.959 98.6203 237.753C99.0464 237.547 99.4059 237.223 99.657 236.819C99.9081 236.415 100.04 235.947 100.039 235.47V152.712C100.039 152.044 100.302 151.402 100.77 150.93C101.238 150.457 101.873 150.191 102.535 150.191H124.998C128.97 150.191 132.779 151.785 135.587 154.622C138.396 157.459 139.974 161.306 139.974 165.318V235.47C139.974 235.945 140.107 236.41 140.357 236.812C140.608 237.214 140.966 237.536 141.389 237.741C141.813 237.947 142.286 238.027 142.753 237.973C143.22 237.919 143.662 237.733 144.029 237.437L174.929 212.376C177.264 210.488 179.149 208.094 180.445 205.371C181.741 202.648 182.415 199.665 182.417 196.644V160.276C182.417 154.927 180.313 149.796 176.568 146.014C172.824 142.231 167.745 140.106 162.449 140.106C167.738 140.096 172.808 137.967 176.544 134.185C180.281 130.404 182.379 125.28 182.379 119.937ZM124.973 130.022H102.51C101.848 130.022 101.213 129.756 100.745 129.283C100.277 128.81 100.014 128.169 100.014 127.5V82.1191C100.014 81.4505 100.277 80.8092 100.745 80.3364C101.213 79.8636 101.848 79.5979 102.51 79.5979H137.453C138.115 79.5979 138.75 79.8636 139.218 80.3364C139.686 80.8092 139.949 81.4505 139.949 82.1191V114.895C139.949 118.906 138.371 122.754 135.562 125.591C132.754 128.428 128.945 130.022 124.973 130.022Z" fill="url(#paint2_linear_1920_8)"/>
<defs>
<filter id="filter0_f_1920_8" x="0" y="0" width="240" height="326" filterUnits="userSpaceOnUse" color-interpolation-filters="sRGB">
<feFlood flood-opacity="0" result="BackgroundImageFix"/>
<feBlend mode="normal" in="SourceGraphic" in2="BackgroundImageFix" result="shape"/>
<feGaussianBlur stdDeviation="5" result="effect1_foregroundBlur_1920_8"/>
</filter>
<filter id="filter1_b_1920_8" x="-0.351351" y="-0.351351" width="240.703" height="326.703" filterUnits="userSpaceOnUse" color-interpolation-filters="sRGB">
<feFlood flood-opacity="0" result="BackgroundImageFix"/>
<feGaussianBlur in="BackgroundImageFix" stdDeviation="6.67568"/>
<feComposite in2="SourceAlpha" operator="in" result="effect1_backgroundBlur_1920_8"/>
<feBlend mode="normal" in="SourceGraphic" in2="effect1_backgroundBlur_1920_8" result="shape"/>
</filter>
<filter id="filter2_b_1920_8" x="-0.351351" y="-0.351351" width="240.703" height="326.703" filterUnits="userSpaceOnUse" color-interpolation-filters="sRGB">
<feFlood flood-opacity="0" result="BackgroundImageFix"/>
<feGaussianBlur in="BackgroundImageFix" stdDeviation="6.67568"/>
<feComposite in2="SourceAlpha" operator="in" result="effect1_backgroundBlur_1920_8"/>
<feBlend mode="normal" in="SourceGraphic" in2="effect1_backgroundBlur_1920_8" result="shape"/>
</filter>
<filter id="filter3_f_1920_8" x="3.08331" y="4.92847" width="233.833" height="287.572" filterUnits="userSpaceOnUse" color-interpolation-filters="sRGB">
<feFlood flood-opacity="0" result="BackgroundImageFix"/>
<feBlend mode="normal" in="SourceGraphic" in2="BackgroundImageFix" result="shape"/>
<feGaussianBlur stdDeviation="25" result="effect1_foregroundBlur_1920_8"/>
</filter>
<linearGradient id="paint0_linear_1920_8" x1="158.253" y1="-89.1561" x2="-27.681" y2="342.37" gradientUnits="userSpaceOnUse">
<stop stop-color="white" stop-opacity="0.6"/>
<stop offset="1" stop-color="white" stop-opacity="0"/>
</linearGradient>
<linearGradient id="paint1_linear_1920_8" x1="188.908" y1="0.278366" x2="-32.916" y2="282.512" gradientUnits="userSpaceOnUse">
<stop stop-color="white"/>
<stop offset="1" stop-color="white"/>
</linearGradient>
<linearGradient id="paint2_linear_1920_8" x1="120" y1="59.4285" x2="120" y2="238" gradientUnits="userSpaceOnUse">
<stop stop-color="white"/>
<stop offset="0.458333" stop-color="white"/>
<stop offset="1" stop-color="white"/>
</linearGradient>
</defs>
</svg>
